<svg width="150" height="166" viewBox="0 0 150 166" fill="none" xmlns="http://www.w3.org/2000/svg">
    <path d="M75 165.21C116.421 165.21 150 131.632 150 90.21C150 48.789 116.421 15.21 75 15.21C33.579 15.21 0 48.79 0 90.21C0 131.632 33.579 165.21 75 165.21Z" fill="url(#paint0_linear)"/>
    <path opacity="0.5" d="M11.602 109.99L75.172 165.2C112.592 165.11 143.572 137.63 149.112 101.73L139.002 97.6997L11.602 109.99Z" fill="#331E77"/>
    <path d="M11.602 105.6V109.99L65.292 140.99V136.59L11.602 105.6Z" fill="#F8F8F8"/>
    <path d="M139.003 93.3101V97.7001L65.293 140.99V136.59L139.003 93.3101Z" fill="#D8DAE8"/>
    <path d="M11.602 105.6L85.322 62.3101L139.002 93.3101L65.292 136.59L11.602 105.6Z" fill="#E8EAEF"/>
    <path d="M14.922 101.38L85.682 59.8301L135.682 88.7001L64.922 130.25L14.922 101.38Z" fill="#E8EAEF"/>
    <path d="M14.922 101.38V105.58L64.922 134.45V130.25L14.922 101.38Z" fill="#F8F8F8"/>
    <path d="M64.922 130.02V134.22L135.682 92.6697V88.4697L64.922 130.02Z" fill="#D8DAE8"/>
    <path d="M18.852 97.16L86.002 57.73L131.762 84.14L64.602 123.58L18.852 97.16Z" fill="#EFF1F4"/>
    <path d="M64.602 123.58V127.9L131.762 88.4697V84.1396L64.602 123.58Z" fill="#D8DAE8"/>
    <path d="M18.852 97.1597V101.49L64.602 127.9V123.58L18.852 97.1597Z" fill="#F8F8F8"/>
    <path d="M33.18 68.26L86.03 37.23L117.42 55.35L64.57 86.38L33.18 68.26Z" fill="white"/>
    <path d="M64.57 82.0598V115.23L117.42 84.1998V51.0298L64.57 82.0598Z" fill="url(#paint1_linear)"/>
    <path d="M87.922 84.0797V101.61L98.182 95.4997V77.9697L87.922 84.0797Z" fill="#C7CBDD"/>
    <path d="M33.18 68.2598V97.1098L64.57 115.23V86.3798L33.18 68.2598Z" fill="url(#paint2_linear)"/>
    <path d="M64.02 78.6599C62.55 77.8099 60.16 77.8199 58.69 78.6699C57.21 79.5199 57.2 80.8999 58.67 81.7499C60.14 82.5999 62.53 82.5899 64 81.7399C65.48 80.8899 65.49 79.5099 64.02 78.6599Z" fill="#1C2958"/>
    <path d="M61.883 114.69V81.3701L57.043 81.3801V114.7C57.043 115.06 57.273 115.42 57.743 115.69C58.683 116.24 60.223 116.23 61.163 115.68C61.643 115.41 61.883 115.05 61.883 114.69Z" fill="url(#paint3_linear)"/>
    <path d="M72.32 114.69V81.3701L67.48 81.3801V114.7C67.48 115.06 67.71 115.42 68.18 115.69C69.12 116.24 70.66 116.23 71.6 115.68C72.09 115.41 72.32 115.05 72.32 114.69Z" fill="url(#paint4_linear)"/>
    <path d="M53.723 109.94V76.6201L48.883 76.6301V109.95C48.883 110.31 49.113 110.67 49.583 110.94C50.523 111.49 52.063 111.48 53.003 110.93C53.483 110.66 53.713 110.3 53.723 109.94Z" fill="url(#paint5_linear)"/>
    <path d="M81.633 109.94V76.6201L76.793 76.6301V109.95C76.793 110.31 77.023 110.67 77.493 110.94C78.433 111.49 79.973 111.48 80.913 110.93C81.393 110.66 81.633 110.3 81.633 109.94Z" fill="url(#paint6_linear)"/>
    <path d="M109.543 92.9599V59.6499L104.703 59.6599V92.9799C104.703 93.3399 104.933 93.6999 105.403 93.9699C106.343 94.5199 107.883 94.5099 108.823 93.9599C109.303 93.6799 109.543 93.3199 109.543 92.9599Z" fill="url(#paint7_linear)"/>
    <path d="M118.852 88.2199V54.8999L114.012 54.9099V88.2299C114.012 88.5899 114.242 88.9499 114.712 89.2199C115.652 89.7699 117.192 89.7599 118.132 89.2099C118.612 88.9299 118.852 88.5799 118.852 88.2199Z" fill="url(#paint8_linear)"/>
    <path d="M45.55 105.19V71.8799L40.71 71.8899V105.21C40.71 105.57 40.94 105.93 41.41 106.2C42.35 106.75 43.89 106.74 44.83 106.19C45.31 105.91 45.55 105.55 45.55 105.19Z" fill="url(#paint9_linear)"/>
    <path d="M37.383 100.451V67.1309L32.543 67.1409V100.461C32.543 100.821 32.773 101.181 33.243 101.451C34.183 102.001 35.723 101.991 36.663 101.441C37.143 101.161 37.383 100.801 37.383 100.451Z" fill="url(#paint10_linear)"/>
    <path d="M28.063 69.5797L85.333 35.9497L122.623 57.4797L65.363 91.1097L28.063 69.5797Z" fill="white"/>
    <path d="M65.363 91.11V95.14L122.623 61.51V57.48L65.363 91.11ZM28.063 69.58V73.61L65.363 95.14V91.11L28.063 69.58Z" fill="#EAECF4"/>
    <path d="M46.132 55.5898C46.132 55.9098 66.022 92.3698 66.022 92.3698L25.602 68.9498L46.132 55.5898Z" fill="#F8F8F8"/>
    <path d="M46.133 55.59L106.393 19.77L126.273 56.55L66.013 92.37L46.133 55.59Z" fill="url(#paint11_linear)"/>
    <path d="M33.773 68.74L44.523 61.75C46.383 65.27 49.613 71.22 54.953 81.01L33.773 68.74Z" fill="#DDDEEA"/>
    <path opacity="0.25" d="M98.182 95.4897L87.922 89.5697V84.0797L98.182 77.9697V95.4897Z" fill="#A7AEC6"/>
    <path d="M61.482 54.7999L54.822 60.3299C60.402 55.6599 62.652 47.3099 59.922 37.8899C55.812 23.7099 42.102 12.4599 29.262 12.8099C24.942 12.9399 21.302 14.3199 18.492 16.6599L25.152 11.1299C27.962 8.78992 31.642 7.40992 35.922 7.27992C48.762 6.92992 62.512 18.1799 66.582 32.3599C69.262 41.7799 67.062 50.1699 61.482 54.7999Z" fill="#845F0A"/>
    <path d="M61.482 54.7999L54.822 60.3299C60.402 55.6599 62.652 47.3099 59.922 37.8899C55.812 23.7099 42.102 12.4599 29.262 12.8099C24.942 12.9399 21.302 14.3199 18.492 16.6599L25.152 11.1299C27.962 8.78992 31.642 7.40992 35.922 7.27992C48.762 6.92992 62.512 18.1799 66.582 32.3599C69.262 41.7799 67.062 50.1699 61.482 54.7999Z" fill="#845F0A"/>
    <path d="M35.88 7.26967C48.72 6.91967 62.47 18.1697 66.54 32.3497C70.65 46.5297 63.51 58.3397 50.67 58.6397C37.83 58.9897 24.08 47.7397 20.01 33.5597C15.95 19.3797 23.04 7.57967 35.88 7.26967Z" fill="#FF9D45"/>
    <path d="M61.48 54.7999L54.82 60.3299C52.01 62.6699 48.33 64.0499 44.05 64.1799C31.21 64.5299 17.46 53.2799 13.4 39.0999C10.68 29.6699 12.92 21.2799 18.5 16.6599L25.16 11.1299C19.58 15.7599 17.38 24.1499 20.06 33.5699C24.17 47.7499 37.88 58.9999 50.72 58.6499C54.99 58.5599 58.67 57.1299 61.48 54.7999Z" fill="#858585"/>
    <path d="M66.58 60.9399L59.92 66.4699C56.33 69.4499 51.62 71.2699 46.13 71.3999C29.66 71.8299 12.06 57.4299 6.82 39.2299C3.32 27.1199 6.17 16.3999 13.35 10.4299L20.01 4.8999C12.88 10.8699 10.02 21.5899 13.48 33.6999C18.71 51.8999 36.31 66.2999 52.79 65.8699C58.28 65.7399 62.99 63.9599 66.58 60.9399Z" fill="#FF9D45"/>
    <path d="M33.809 0.00987327C50.289 -0.420127 67.879 13.9799 73.119 32.1399C78.349 50.3399 69.269 65.4399 52.799 65.8699C36.309 66.2999 18.719 51.8999 13.479 33.6899C8.24901 15.5299 17.329 0.439873 33.809 0.00987327ZM50.709 58.6499C63.549 58.2999 70.639 46.5399 66.579 32.3599C62.479 18.1699 48.769 6.92987 35.929 7.26987C23.079 7.61987 15.989 19.3799 20.059 33.5599C24.119 47.7499 37.869 58.9899 50.709 58.6499Z" fill="url(#paint12_linear)"/>
    <path d="M122.951 32.5098L126.931 33.7698C126.841 33.8398 126.711 33.8898 126.621 33.9598L122.641 32.6998C122.731 32.6398 122.831 32.5898 122.951 32.5098Z" fill="#CA9210"/>
    <path d="M122.642 32.71L126.622 33.97C125.172 34.9 123.832 36.23 122.722 37.83L118.742 36.57C119.842 34.97 121.162 33.65 122.642 32.71Z" fill="#CF9610"/>
    <path d="M118.71 36.5801L122.69 37.8401C122.4 38.2401 122.13 38.6601 121.89 39.0901L117.91 37.8301C118.15 37.4001 118.43 36.9801 118.71 36.5801Z" fill="#CA9210"/>
    <path d="M117.92 37.8398L121.9 39.0998C121.71 39.4298 121.5 39.7898 121.32 40.1398L117.34 38.8798C117.52 38.5198 117.73 38.1898 117.92 37.8398Z" fill="#C58F10"/>
    <path d="M117.342 38.8999L121.322 40.1599C121.152 40.4799 121.012 40.7799 120.882 41.1099L116.902 39.8499C117.032 39.5199 117.192 39.1799 117.342 38.8999Z" fill="#C08B0F"/>
    <path d="M116.892 39.8301L120.872 41.0901C120.752 41.3801 120.612 41.6901 120.492 41.9801L116.512 40.7201C116.662 40.4101 116.772 40.1201 116.892 39.8301Z" fill="#BB870F"/>
    <path d="M116.542 40.71L120.522 41.97C120.402 42.26 120.312 42.55 120.222 42.83L116.242 41.57C116.312 41.29 116.422 41 116.542 40.71Z" fill="#B6840E"/>
    <path d="M116.223 41.5801L120.203 42.8401C120.113 43.1201 120.023 43.4001 119.933 43.6901L115.953 42.4301C116.023 42.1101 116.113 41.8301 116.223 41.5801Z" fill="#B1800E"/>
    <path d="M115.931 42.3999L119.911 43.6599C119.821 43.9399 119.751 44.2099 119.691 44.4799L115.711 43.2199C115.781 42.9499 115.871 42.6699 115.931 42.3999Z" fill="#AC7C0E"/>
    <path d="M115.713 43.2197L119.693 44.4797C119.623 44.7497 119.563 45.0197 119.503 45.3197L115.523 44.0597C115.593 43.7897 115.663 43.5197 115.713 43.2197Z" fill="#A7790D"/>
    <path d="M115.521 44.0601L119.501 45.3201C119.431 45.5901 119.381 45.8901 119.351 46.1701L115.371 44.9101C115.401 44.6301 115.471 44.3601 115.521 44.0601Z" fill="#A2750D"/>
    <path d="M115.351 44.9297L119.331 46.1897C119.281 46.4897 119.251 46.7697 119.191 47.0697L115.211 45.8097C115.271 45.5097 115.321 45.2097 115.351 44.9297Z" fill="#9D710C"/>
    <path d="M115.242 45.79L119.222 47.05C119.182 47.37 119.152 47.66 119.132 47.97L115.152 46.71C115.172 46.4 115.182 46.09 115.242 45.79Z" fill="#986E0C"/>
    <path d="M115.15 46.71L119.13 47.97C119.1 48.32 119.08 48.63 119.07 48.97L115.09 47.71C115.1 47.37 115.1 47.04 115.15 46.71Z" fill="#936A0C"/>
    <path d="M115.082 47.6797L119.062 48.9397C119.042 49.3097 119.042 49.6797 119.062 50.0597L115.082 48.7997C115.072 48.4497 115.072 48.0797 115.082 47.6797Z" fill="#8E660B"/>
    <path d="M115.082 48.8101L119.062 50.0701C119.082 50.4601 119.102 50.8701 119.152 51.2801C119.152 51.3401 119.172 51.3901 119.162 51.4601L115.182 50.2001C115.182 50.1401 115.162 50.0901 115.172 50.0201C115.122 49.6101 115.102 49.2201 115.082 48.8101Z" fill="#89630B"/>
    <path d="M115.191 50.1899L119.171 51.4499C119.651 55.4599 121.601 58.1499 124.141 58.9699L120.161 57.7099C117.611 56.8899 115.691 54.1899 115.191 50.1899Z" fill="#845F0A"/>
    <path d="M115.191 50.1899L119.171 51.4499C119.651 55.4599 121.601 58.1499 124.141 58.9699L120.161 57.7099C117.611 56.8899 115.691 54.1899 115.191 50.1899Z" fill="#845F0A"/>
    <path d="M115.191 50.1899L119.171 51.4499C119.651 55.4599 121.601 58.1499 124.141 58.9699L120.161 57.7099C117.611 56.8899 115.691 54.1899 115.191 50.1899Z" fill="#845F0A"/>
    <path d="M128.413 31.6501L132.393 32.9101C132.293 32.8901 132.223 32.8601 132.113 32.8201L128.133 31.5601C128.243 31.6001 128.313 31.6301 128.413 31.6501Z" fill="#A2750D"/>
    <path d="M128.143 31.5797L132.123 32.8397C131.953 32.7897 131.753 32.7597 131.593 32.7297L127.613 31.4697C127.773 31.4997 127.963 31.5397 128.143 31.5797Z" fill="#A7790D"/>
    <path d="M127.613 31.4797L131.592 32.7397C131.402 32.7297 131.232 32.6797 131.042 32.6697L127.062 31.4097C127.252 31.4197 127.413 31.4397 127.613 31.4797Z" fill="#AC7C0E"/>
    <path d="M127.064 31.4098L131.044 32.6698C130.854 32.6598 130.674 32.6498 130.464 32.6698L126.484 31.4098C126.664 31.3998 126.874 31.3998 127.064 31.4098Z" fill="#B1800E"/>
    <path d="M126.485 31.4097L130.465 32.6697C130.255 32.6697 130.075 32.6897 129.875 32.7097L125.895 31.4497C126.105 31.4297 126.275 31.4097 126.485 31.4097Z" fill="#B6840E"/>
    <path d="M125.894 31.46L129.874 32.72C129.674 32.75 129.444 32.78 129.234 32.85L125.254 31.59C125.474 31.52 125.674 31.49 125.894 31.46Z" fill="#BB870F"/>
    <path d="M125.255 31.5801L129.235 32.8401C129.005 32.8801 128.765 32.9501 128.535 33.0501L124.555 31.7901C124.785 31.6901 125.005 31.6301 125.255 31.5801Z" fill="#C08B0F"/>
    <path d="M124.545 31.77L128.525 33.03C128.255 33.11 127.975 33.24 127.695 33.36L123.715 32.1C123.995 31.97 124.265 31.89 124.545 31.77Z" fill="#C58F10"/>
    <path d="M123.723 32.1201L127.703 33.3801C127.443 33.4901 127.173 33.6401 126.933 33.7701L122.953 32.5101C123.193 32.3801 123.463 32.2301 123.723 32.1201Z" fill="#CA9210"/>
    <path d="M115.191 50.1899L119.171 51.4499C119.651 55.4599 121.601 58.1499 124.141 58.9699L120.161 57.7099C117.611 56.8899 115.691 54.1899 115.191 50.1899Z" fill="#845F0A"/>
    <path d="M125.641 56.8398L129.621 58.0998C129.351 58.2498 129.101 58.3798 128.851 58.4898L124.871 57.2298C125.131 57.1198 125.371 56.9798 125.641 56.8398Z" fill="#CCCCCC"/>
    <path d="M124.873 57.23L128.853 58.49C128.573 58.61 128.313 58.72 128.023 58.82L124.043 57.56C124.313 57.47 124.603 57.38 124.873 57.23Z" fill="#C7C7C7"/>
    <path d="M124.052 57.5801L128.032 58.8401C127.792 58.9101 127.552 58.9901 127.332 59.0501L123.352 57.7901C123.572 57.7301 123.812 57.6601 124.052 57.5801Z" fill="#C2C2C2"/>
    <path d="M123.343 57.77L127.323 59.03C127.103 59.09 126.903 59.12 126.683 59.16L122.703 57.9C122.923 57.86 123.123 57.83 123.343 57.77Z" fill="#BDBDBD"/>
    <path d="M122.692 57.8896L126.672 59.1497C126.472 59.1797 126.272 59.1996 126.082 59.1896L122.102 57.9296C122.292 57.9496 122.492 57.9196 122.692 57.8896Z" fill="#B8B8B8"/>
    <path d="M122.103 57.9399L126.083 59.1999C125.903 59.2099 125.693 59.2199 125.503 59.1999L121.523 57.9399C121.723 57.9499 121.903 57.9599 122.103 57.9399Z" fill="#B3B3B3"/>
    <path d="M121.53 57.9401L125.51 59.2001C125.325 59.1972 125.14 59.1737 124.96 59.1301L120.98 57.8701C121.16 57.9201 121.34 57.9301 121.53 57.9401Z" fill="#ADADAD"/>
    <path d="M120.991 57.9L124.971 59.16C124.771 59.12 124.611 59.1 124.441 59.05L120.461 57.79C120.621 57.81 120.801 57.86 120.991 57.9Z" fill="#A8A8A8"/>
    <path d="M120.452 57.7697L124.432 59.0297C124.332 59.0097 124.262 58.9797 124.152 58.9397L120.172 57.6797C120.252 57.7297 120.352 57.7497 120.452 57.7697Z" fill="#A3A3A3"/>
    <path d="M122.97 62.63L119 61.37C121.11 62.04 123.53 61.73 126 60.27L129.98 61.53C127.49 62.97 125.07 63.28 122.97 62.63Z" fill="#FF9D45"/>
    <path d="M122.97 62.63L119 61.37C121.11 62.04 123.53 61.73 126 60.27L129.98 61.53C127.49 62.97 125.07 63.28 122.97 62.63Z" fill="#FF9D45"/>
    <path d="M126.021 60.2598L130.001 61.5198C129.661 61.7298 129.341 61.8898 129.011 62.0398L125.031 60.7798C125.361 60.6298 125.681 60.4598 126.021 60.2598Z" fill="#FF9D45"/>
    <path d="M125.032 60.7798L129.012 62.0398C128.652 62.1898 128.322 62.3398 127.972 62.4598L123.992 61.1998C124.342 61.0798 124.672 60.9298 125.032 60.7798ZM123.971 61.1998L127.951 62.4598C127.631 62.5698 127.341 62.6598 127.031 62.7298L123.051 61.4698C123.381 61.3998 123.671 61.2998 123.971 61.1998Z" fill="#FF9D45"/>
    <path d="M123.082 61.4697L127.062 62.7297C126.792 62.7941 126.518 62.8409 126.242 62.8697L122.262 61.6097C122.522 61.5797 122.802 61.5197 123.082 61.4697Z" fill="#FF9D45"/>
    <path d="M122.262 61.6099L126.242 62.8699C125.992 62.9199 125.722 62.9399 125.472 62.9299L121.492 61.6699C121.742 61.6799 122.002 61.6499 122.262 61.6099ZM121.502 61.6899L125.482 62.9499C125.242 62.9599 124.992 62.9499 124.742 62.9299L120.762 61.6699C120.992 61.6999 121.242 61.7099 121.502 61.6899Z" fill="#FF9D45"/>
    <path d="M120.77 61.6699L124.75 62.9299C124.5 62.9199 124.28 62.8899 124.05 62.8699L120.07 61.6099C120.29 61.6299 120.52 61.6599 120.77 61.6699Z" fill="#FF9D45"/>
    <path d="M120.073 61.61L124.053 62.87C123.823 62.82 123.593 62.79 123.363 62.74L119.383 61.48C119.603 61.5 119.813 61.57 120.073 61.61Z" fill="#FF9D45"/>
    <path d="M119.371 61.4499L123.351 62.7099C123.241 62.6699 123.121 62.6599 123.011 62.6199L119.031 61.3599C119.131 61.3999 119.241 61.4499 119.371 61.4499Z" fill="#FF9D45"/>
    <path d="M128.41 31.6499L132.39 32.9099C134.96 33.7199 136.87 36.3899 137.36 40.4299L133.38 39.1699C132.89 35.1599 130.97 32.4599 128.41 31.6499Z" fill="#858585"/>
    <path d="M133.379 39.1699L137.359 40.4299C137.359 40.4899 137.379 40.5399 137.369 40.6099C137.419 41.0099 137.439 41.3999 137.459 41.8199L133.479 40.5599C133.459 40.1699 133.439 39.7599 133.389 39.3499C133.399 39.2799 133.399 39.2199 133.379 39.1699Z" fill="#8A8A8A"/>
    <path d="M133.492 40.5498L137.472 41.8098C137.472 42.1698 137.492 42.5598 137.472 42.9298L133.492 41.6698C133.522 41.2698 133.522 40.8998 133.492 40.5498Z" fill="#8F8F8F"/>
    <path d="M133.509 41.6597L137.489 42.9197C137.479 43.2597 137.469 43.5697 137.429 43.9197L133.449 42.6597C133.479 42.3097 133.489 41.9797 133.509 41.6597Z" fill="#949494"/>
    <path d="M133.442 42.6396L137.422 43.8997C137.402 44.2097 137.352 44.5096 137.332 44.8196L133.352 43.5597C133.412 43.2597 133.422 42.9496 133.442 42.6396Z" fill="#999999"/>
    <path d="M133.351 43.5601L137.331 44.8201C137.301 45.1101 137.251 45.4001 137.191 45.7001L133.211 44.4401C133.271 44.1401 133.321 43.8401 133.351 43.5601Z" fill="#9E9E9E"/>
    <path d="M133.213 44.4399L137.193 45.6999C137.143 45.9999 137.102 46.2599 137.042 46.5499L133.062 45.2899C133.122 44.9899 133.183 44.7199 133.213 44.4399Z" fill="#A3A3A3"/>
    <path d="M133.061 45.29L137.041 46.55C136.971 46.82 136.921 47.12 136.851 47.39L132.871 46.13C132.931 45.83 133.001 45.56 133.061 45.29Z" fill="#A8A8A8"/>
    <path d="M132.88 46.1299L136.86 47.3899C136.79 47.6599 136.7 47.9399 136.64 48.2099L132.66 46.9499C132.72 46.6799 132.79 46.4099 132.88 46.1299Z" fill="#ADADAD"/>
    <path d="M132.629 46.96L136.609 48.22C136.519 48.5 136.429 48.78 136.339 49.07L132.359 47.81C132.469 47.52 132.569 47.24 132.629 46.96Z" fill="#B3B3B3"/>
    <path d="M132.382 47.7998L136.362 49.0598C136.272 49.3398 136.152 49.6398 136.062 49.9198L132.082 48.6598C132.162 48.3498 132.272 48.0898 132.382 47.7998Z" fill="#B8B8B8"/>
    <path d="M132.052 48.6396L136.032 49.8997C135.912 50.1897 135.802 50.4897 135.652 50.7896L131.672 49.5296C131.812 49.2296 131.932 48.9396 132.052 48.6396Z" fill="#BDBDBD"/>
    <path d="M131.67 49.5298L135.65 50.7898L135.21 51.7398L131.23 50.4798C131.4 50.1698 131.53 49.8398 131.67 49.5298Z" fill="#C2C2C2"/>
    <path d="M131.232 50.48L135.212 51.74C135.032 52.09 134.842 52.44 134.632 52.78L130.652 51.52C130.862 51.19 131.052 50.84 131.232 50.48Z" fill="#C7C7C7"/>
    <path d="M130.671 51.5098L134.651 52.7698C134.391 53.2198 134.141 53.6298 133.851 54.0198L129.871 52.7598C130.131 52.3798 130.411 51.9598 130.671 51.5098Z" fill="#CCCCCC"/>
    <path d="M129.849 52.7798L133.829 54.0398C132.729 55.6398 131.389 56.9698 129.929 57.8998L125.949 56.6398C127.409 55.7098 128.739 54.3798 129.849 52.7798Z" fill="#D1D1D1"/>
    <path d="M125.951 56.6396L129.931 57.8997C129.841 57.9697 129.711 58.0196 129.621 58.0896L125.641 56.8297C125.731 56.7697 125.861 56.7096 125.951 56.6396Z" fill="#CCCCCC"/>
    <path d="M129.571 27.9897L133.551 29.2497C136.891 30.2997 139.381 33.8197 139.951 39.0997C140.921 47.6997 136.461 57.7397 130.011 61.5197L126.031 60.2597C132.481 56.4797 136.941 46.4497 135.971 37.8397C135.391 32.5597 132.911 29.0397 129.571 27.9897Z" fill="#DB9812"/>
    <path d="M129.571 27.9897L133.551 29.2497C136.891 30.2997 139.381 33.8197 139.951 39.0997C140.921 47.6997 136.461 57.7397 130.011 61.5197L126.031 60.2597C132.481 56.4797 136.941 46.4497 135.971 37.8397C135.391 32.5597 132.911 29.0397 129.571 27.9897Z" fill="#FF9D45"/>
    <path d="M129.57 27.9897L133.55 29.2497C136.83 30.2997 139.31 33.7297 139.94 38.8597L135.96 37.5997C135.32 32.4697 132.84 29.0397 129.57 27.9897ZM135.949 37.6097L139.929 38.8697C139.939 38.9597 139.929 39.0197 139.969 39.0997C140.039 39.6197 140.069 40.1197 140.079 40.6297L136.099 39.3697C136.089 38.8597 136.049 38.3297 135.989 37.8397C135.969 37.7797 135.959 37.6897 135.949 37.6097ZM136.078 39.3697L140.058 40.6297C140.078 41.1097 140.068 41.5697 140.068 42.0597L136.088 40.7997C136.098 40.3397 136.098 39.8497 136.078 39.3697ZM136.08 40.7997L140.06 42.0597C140.06 42.4797 140.02 42.8997 140 43.3297L136.02 42.0697C136.06 41.6597 136.08 41.2197 136.08 40.7997Z" fill="#FF9D45"/>
    <path d="M136.021 42.0698L140.001 43.3298C139.951 43.7098 139.941 44.1098 139.871 44.5098L135.891 43.2498C135.971 42.8598 136.011 42.4698 136.021 42.0698Z" fill="#FF9D45"/>
    <path d="M135.922 43.2397L139.902 44.4997C139.852 44.8797 139.792 45.2397 139.742 45.5997L135.762 44.3397C135.812 43.9797 135.872 43.6197 135.922 43.2397ZM135.739 44.3797L139.719 45.6397C139.659 45.9997 139.579 46.3697 139.519 46.7297L135.539 45.4697C135.619 45.0997 135.679 44.7397 135.739 44.3797Z" fill="#FF9D45"/>
    <path d="M135.541 45.4697L139.521 46.7297C139.441 47.0997 139.371 47.4297 139.281 47.7997L135.301 46.5397C135.391 46.1697 135.451 45.8097 135.541 45.4697ZM135.269 46.5297L139.249 47.7897C139.159 48.1297 139.069 48.4997 138.949 48.8597L134.969 47.5997C135.089 47.2397 135.179 46.8997 135.269 46.5297Z" fill="#FF9D45"/>
    <path d="M134.989 47.5898L138.969 48.8498C138.849 49.2098 138.739 49.5898 138.609 49.9198L134.629 48.6598C134.769 48.3198 134.889 47.9698 134.989 47.5898ZM134.64 48.6798L138.62 49.9398C138.5 50.2998 138.35 50.6598 138.21 51.0298L134.23 49.7698C134.38 49.3998 134.52 49.0298 134.64 48.6798ZM134.23 49.7698L138.21 51.0298C138.06 51.3998 137.9 51.7998 137.73 52.1798L133.75 50.9198C133.92 50.5098 134.09 50.1298 134.23 49.7698Z" fill="#FF9D45"/>
    <path d="M133.769 50.8799L137.749 52.1399C137.559 52.5499 137.369 52.9399 137.179 53.3599L133.199 52.0999C133.399 51.7099 133.579 51.2899 133.769 50.8799Z" fill="#FF9D45"/>
    <path d="M133.199 52.1001L137.179 53.3601C136.949 53.8201 136.719 54.2601 136.449 54.7101L132.469 53.4501C132.709 53.0101 132.969 52.5601 133.199 52.1001Z" fill="#FF9D45"/>
    <path d="M132.471 53.4399L136.451 54.6999C136.121 55.2699 135.771 55.8099 135.421 56.3299L131.441 55.0699C131.791 54.5299 132.141 54.0099 132.471 53.4399Z" fill="#FF9D45"/>
    <path d="M131.432 55.04L135.412 56.3C133.982 58.34 132.292 60.07 130.402 61.25L126.422 59.99C128.292 58.83 129.992 57.12 131.432 55.04ZM126.43 60.02L130.37 61.27C130.25 61.35 130.11 61.44 129.98 61.5L126 60.24C126.16 60.17 126.28 60.09 126.43 60.02Z" fill="#FF9D45"/>
    <path d="M126.021 60.2601C119.571 64.0401 113.571 60.1201 112.601 51.5201C111.631 42.9201 116.091 32.8801 122.541 29.1001C128.991 25.3201 134.991 29.2401 135.961 37.8401C136.931 46.4401 132.471 56.4801 126.021 60.2601ZM122.951 32.5101C117.931 35.4601 114.431 43.2801 115.201 50.0001C115.941 56.7301 120.631 59.7801 125.671 56.8201C130.691 53.8701 134.191 46.0501 133.421 39.3301C132.651 32.6101 127.981 29.5901 122.951 32.5101Z" fill="url(#paint13_linear)"/>
    <path d="M125.64 56.8399C120.62 59.7899 115.93 56.7299 115.17 50.0199C114.43 43.2899 117.9 35.4799 122.92 32.5299C127.94 29.5799 132.63 32.6399 133.39 39.3499C134.16 46.0599 130.69 53.8799 125.64 56.8399Z" fill="#FF9D45"/>
    <g filter="url(#filter0_d)">
        <path d="M121 116H28C24.6863 116 22 118.686 22 122V140C22 143.314 24.6863 146 28 146H121C124.314 146 127 143.314 127 140V122C127 118.686 124.314 116 121 116Z" fill="url(#paint14_linear)"/>
    </g>
    <path d="M32.414 135.685C32.4143 135.762 32.4448 135.835 32.4989 135.889C32.5531 135.943 32.6264 135.974 32.703 135.974H34.388C34.54 135.974 34.661 135.837 34.661 135.685V125.938C34.661 125.786 34.54 125.649 34.388 125.649H32.991L30.775 127.38C30.7231 127.446 30.6914 127.525 30.684 127.608V128.564C30.684 128.716 30.805 128.853 30.957 128.853H32.414V135.685ZM41.13 135.685C41.13 135.837 41.251 135.974 41.418 135.974H43.103C43.255 135.974 43.377 135.837 43.377 135.685V125.938C43.377 125.786 43.255 125.649 43.103 125.649H41.707L39.49 127.38C39.4381 127.446 39.4064 127.525 39.399 127.608V128.564C39.399 128.716 39.52 128.853 39.672 128.853H41.13V135.685ZM49.845 135.685C49.845 135.837 49.967 135.974 50.133 135.974H51.819C51.971 135.974 52.092 135.837 52.092 135.685V125.938C52.092 125.786 51.971 125.649 51.819 125.649H50.422L48.205 127.38C48.1534 127.446 48.1221 127.525 48.115 127.608V128.564C48.115 128.716 48.235 128.853 48.387 128.853H49.845V135.685ZM61.142 136.126C63.617 136.126 65.029 134.137 65.029 130.812C65.029 127.487 63.617 125.498 61.142 125.498C58.668 125.498 57.256 127.487 57.256 130.812C57.256 134.137 58.668 136.126 61.142 136.126ZM61.142 133.924C60.216 133.924 59.7 132.816 59.7 130.812C59.7 128.823 60.216 127.699 61.142 127.699C62.069 127.699 62.585 128.823 62.585 130.812C62.585 132.816 62.069 133.924 61.142 133.924ZM71.027 135.685C71.027 135.837 71.148 135.974 71.315 135.974H73.001C73.152 135.974 73.274 135.837 73.274 135.685V125.938C73.274 125.786 73.152 125.649 73.001 125.649H71.604L69.387 127.38C69.3352 127.446 69.3035 127.525 69.296 127.608V128.564C69.296 128.716 69.417 128.853 69.569 128.853H71.027V135.685ZM79.742 135.685C79.742 135.837 79.863 135.974 80.03 135.974H81.716C81.868 135.974 81.989 135.837 81.989 135.685V125.938C81.989 125.786 81.868 125.649 81.716 125.649H80.319L78.102 127.38C78.0505 127.446 78.0193 127.525 78.012 127.608V128.564C78.012 128.716 78.132 128.853 78.284 128.853H79.742V135.685ZM91.04 136.126C93.514 136.126 94.926 134.137 94.926 130.812C94.926 127.487 93.514 125.498 91.04 125.498C88.565 125.498 87.153 127.487 87.153 130.812C87.153 134.137 88.565 136.126 91.039 136.126H91.04ZM91.04 133.924C90.113 133.924 89.597 132.816 89.597 130.812C89.597 128.823 90.113 127.699 91.04 127.699C91.966 127.699 92.482 128.823 92.482 130.812C92.482 132.816 91.966 133.924 91.04 133.924ZM103.55 136.126C106.025 136.126 107.437 134.137 107.437 130.812C107.437 127.487 106.025 125.498 103.55 125.498C101.076 125.498 99.664 127.487 99.664 130.812C99.664 134.137 101.076 136.126 103.55 136.126ZM103.55 133.924C102.624 133.924 102.108 132.816 102.108 130.812C102.108 128.823 102.624 127.699 103.55 127.699C104.477 127.699 104.993 128.823 104.993 130.812C104.993 132.816 104.477 133.924 103.55 133.924ZM113.435 135.685C113.435 135.837 113.556 135.974 113.723 135.974H115.409C115.56 135.974 115.682 135.837 115.682 135.685V125.938C115.682 125.786 115.56 125.649 115.409 125.649H114.012L111.795 127.38C111.743 127.446 111.712 127.525 111.704 127.608V128.564C111.704 128.716 111.825 128.853 111.977 128.853H113.435V135.685Z" fill="white"/>
    <defs>
        <filter id="filter0_d" x="12" y="110" width="125" height="50" filterUnits="userSpaceOnUse" color-interpolation-filters="sRGB">
            <feFlood flood-opacity="0" result="BackgroundImageFix"/>
            <feColorMatrix in="SourceAlpha" type="matrix" values="0 0 0 0 0 0 0 0 0 0 0 0 0 0 0 0 0 0 127 0"/>
            <feOffset dy="4"/>
            <feGaussianBlur stdDeviation="5"/>
            <feColorMatrix type="matrix" values="0 0 0 0 0.101961 0 0 0 0 0.207843 0 0 0 0 0.0941176 0 0 0 0.15 0"/>
            <feBlend mode="normal" in2="BackgroundImageFix" result="effect1_dropShadow"/>
            <feBlend mode="normal" in="SourceGraphic" in2="effect1_dropShadow" result="shape"/>
        </filter>
        <linearGradient id="paint0_linear" x1="75" y1="165.206" x2="75" y2="15.206" gradientUnits="userSpaceOnUse">
            <stop stop-color="#1F5BB2"/>
            <stop offset="1" stop-color="#001A77"/>
        </linearGradient>
        <linearGradient id="paint1_linear" x1="83.703" y1="70.4978" x2="98.289" y2="95.7618" gradientUnits="userSpaceOnUse">
            <stop stop-color="#CDD3E4"/>
            <stop offset="1" stop-color="#EEEDF2"/>
        </linearGradient>
        <linearGradient id="paint2_linear" x1="48.873" y1="115.231" x2="48.873" y2="68.2638" gradientUnits="userSpaceOnUse">
            <stop stop-color="#EEEDF2"/>
            <stop offset="1" stop-color="#CDD3E4"/>
        </linearGradient>
        <linearGradient id="paint3_linear" x1="59.463" y1="116.094" x2="59.463" y2="81.3711" gradientUnits="userSpaceOnUse">
            <stop stop-color="white"/>
            <stop offset="0.436" stop-color="#FBFBFD"/>
            <stop offset="0.88" stop-color="#EFF0F6"/>
            <stop offset="1" stop-color="#EAECF4"/>
        </linearGradient>
        <linearGradient id="paint4_linear" x1="69.904" y1="116.094" x2="69.904" y2="81.3711" gradientUnits="userSpaceOnUse">
            <stop stop-color="white"/>
            <stop offset="0.436" stop-color="#FBFBFD"/>
            <stop offset="0.88" stop-color="#EFF0F6"/>
            <stop offset="1" stop-color="#EAECF4"/>
        </linearGradient>
        <linearGradient id="paint5_linear" x1="51.297" y1="111.346" x2="51.297" y2="76.6241" gradientUnits="userSpaceOnUse">
            <stop stop-color="white"/>
            <stop offset="0.436" stop-color="#FBFBFD"/>
            <stop offset="0.88" stop-color="#EFF0F6"/>
            <stop offset="1" stop-color="#EAECF4"/>
        </linearGradient>
        <linearGradient id="paint6_linear" x1="79.211" y1="111.346" x2="79.211" y2="76.6241" gradientUnits="userSpaceOnUse">
            <stop stop-color="white"/>
            <stop offset="0.436" stop-color="#FBFBFD"/>
            <stop offset="0.88" stop-color="#EFF0F6"/>
            <stop offset="1" stop-color="#EAECF4"/>
        </linearGradient>
        <linearGradient id="paint7_linear" x1="107.125" y1="94.3689" x2="107.125" y2="59.6469" gradientUnits="userSpaceOnUse">
            <stop stop-color="white"/>
            <stop offset="0.436" stop-color="#FBFBFD"/>
            <stop offset="0.88" stop-color="#EFF0F6"/>
            <stop offset="1" stop-color="#EAECF4"/>
        </linearGradient>
        <linearGradient id="paint8_linear" x1="116.428" y1="89.6219" x2="116.428" y2="54.8989" gradientUnits="userSpaceOnUse">
            <stop stop-color="white"/>
            <stop offset="0.436" stop-color="#FBFBFD"/>
            <stop offset="0.88" stop-color="#EFF0F6"/>
            <stop offset="1" stop-color="#EAECF4"/>
        </linearGradient>
        <linearGradient id="paint9_linear" x1="43.129" y1="106.599" x2="43.129" y2="71.8759" gradientUnits="userSpaceOnUse">
            <stop stop-color="white"/>
            <stop offset="0.436" stop-color="#FBFBFD"/>
            <stop offset="0.88" stop-color="#EFF0F6"/>
            <stop offset="1" stop-color="#EAECF4"/>
        </linearGradient>
        <linearGradient id="paint10_linear" x1="34.965" y1="101.852" x2="34.965" y2="67.1289" gradientUnits="userSpaceOnUse">
            <stop stop-color="white"/>
            <stop offset="0.436" stop-color="#FBFBFD"/>
            <stop offset="0.88" stop-color="#EFF0F6"/>
            <stop offset="1" stop-color="#EAECF4"/>
        </linearGradient>
        <linearGradient id="paint11_linear" x1="46.129" y1="56.069" x2="126.275" y2="56.069" gradientUnits="userSpaceOnUse">
            <stop stop-color="#EEEDF2"/>
            <stop offset="1" stop-color="#C2CDCF"/>
        </linearGradient>
        <linearGradient id="paint12_linear" x1="12.002" y1="32.9379" x2="74.592" y2="32.9379" gradientUnits="userSpaceOnUse">
            <stop stop-color="#FFB24D"/>
            <stop offset="1" stop-color="#FFDC7B"/>
        </linearGradient>
        <linearGradient id="paint13_linear" x1="114.882" y1="36.9131" x2="133.676" y2="52.4401" gradientUnits="userSpaceOnUse">
            <stop stop-color="#FFB24D"/>
            <stop offset="1" stop-color="#FFDC7B"/>
        </linearGradient>
        <linearGradient id="paint14_linear" x1="74.5" y1="116" x2="74.5" y2="146" gradientUnits="userSpaceOnUse">
            <stop stop-color="#415C83"/>
            <stop offset="1" stop-color="#131E45"/>
        </linearGradient>
    </defs>
</svg>
